/* XPM */
static const char * flag_de_xpm[] = {
"32 20 256 2",
"   c #E00013",
".  c #DF0013",
"+  c #D70013",
"@  c #C60012",
"#  c #BF0012",
"$  c #FFFE00",
"%  c #FFFF00",
"&  c #FFF900",
"*  c #E7DE00",
"=  c #EFE500",
"-  c #FFD900",
";  c #FFDB00",
">  c #FFDC00",
",  c #FFD300",
"'  c #FFD400",
")  c #FFD600",
"!  c #FFD700",
"~  c #ECC200",
"{  c #E6BD00",
"]  c #E3BC00",
"^  c #FFCE00",
"/  c #FFCF00",
"(  c #F5C500",
"_  c #F2C300",
":  c #EEC300",
"<  c #EBBE00",
"[  c #EABD00",
"}  c #E3B700",
"|  c #D6AE00",
"1  c #D0A800",
"2  c #F5610B",
"3  c #F25E0B",
"4  c #EB5B0B",
"5  c #D7540A",
"6  c #EA5B0B",
"7  c #E95B0B",
"8  c #D1500A",
"9  c #781308",
"0  c #FF2B14",
"a  c #881409",
"b  c #EB2410",
"c  c #EA2210",
"d  c #E72310",
"e  c #E62010",
"f  c #E51F10",
"g  c #E52210",
"h  c #861409",
"i  c #831409",
"j  c #821409",
"k  c #741108",
"l  c #FB2512",
"m  c #F32412",
"n  c #E22210",
"o  c #DF2110",
"p  c #DE2110",
"q  c #D01F0F",
"r  c #CC1E0F",
"s  c #C91E0F",
"t  c #C61D0F",
"u  c #FF2814",
"v  c #FF2914",
"w  c #DE1E10",
"x  c #DD1E10",
"y  c #CB1B0F",
"z  c #C51A0F",
"A  c #000000",
"B  c #000000",
"C  c #000000",
"D  c #000000",
"E  c #000000",
"F  c #000000",
"G  c #000000",
"H  c #000000",
"I  c #000000",
"J  c #000000",
"K  c #000000",
"L  c #000000",
"M  c #000000",
"N  c #000000",
"O  c #000000",
"P  c #000000",
"Q  c #000000",
"R  c #000000",
"S  c #000000",
"T  c #000000",
"U  c #000000",
"V  c #000000",
"W  c #000000",
"X  c #000000",
"Y  c #000000",
"Z  c #000000",
"`  c #000000",
" . c #000000",
".. c #000000",
"+. c #000000",
"@. c #000000",
"#. c #000000",
"$. c #000000",
"%. c #000000",
"&. c #000000",
"*. c #000000",
"=. c #000000",
"-. c #000000",
";. c #000000",
">. c #000000",
",. c #000000",
"'. c #000000",
"). c #000000",
"!. c #000000",
"~. c #000000",
"{. c #000000",
"]. c #000000",
"^. c #000000",
"/. c #000000",
"(. c #000000",
"_. c #000000",
":. c #000000",
"<. c #000000",
"[. c #000000",
"}. c #000000",
"|. c #000000",
"1. c #000000",
"2. c #000000",
"3. c #000000",
"4. c #000000",
"5. c #000000",
"6. c #000000",
"7. c #000000",
"8. c #000000",
"9. c #000000",
"0. c #000000",
"a. c #000000",
"b. c #000000",
"c. c #000000",
"d. c #000000",
"e. c #000000",
"f. c #000000",
"g. c #000000",
"h. c #000000",
"i. c #000000",
"j. c #000000",
"k. c #000000",
"l. c #000000",
"m. c #000000",
"n. c #000000",
"o. c #000000",
"p. c #000000",
"q. c #000000",
"r. c #000000",
"s. c #000000",
"t. c #000000",
"u. c #000000",
"v. c #000000",
"w. c #000000",
"x. c #000000",
"y. c #000000",
"z. c #000000",
"A. c #000000",
"B. c #000000",
"C. c #000000",
"D. c #000000",
"E. c #000000",
"F. c #000000",
"G. c #000000",
"H. c #000000",
"I. c #000000",
"J. c #000000",
"K. c #000000",
"L. c #000000",
"M. c #000000",
"N. c #000000",
"O. c #000000",
"P. c #000000",
"Q. c #000000",
"R. c #000000",
"S. c #000000",
"T. c #000000",
"U. c #000000",
"V. c #000000",
"W. c #000000",
"X. c #000000",
"Y. c #000000",
"Z. c #000000",
"`. c #000000",
" + c #000000",
".+ c #000000",
"++ c #000000",
"@+ c #000000",
"#+ c #000000",
"$+ c #000000",
"%+ c #000000",
"&+ c #000000",
"*+ c #000000",
"=+ c #000000",
"-+ c #000000",
";+ c #000000",
">+ c #000000",
",+ c #000000",
"'+ c #000000",
")+ c #000000",
"!+ c #000000",
"~+ c #000000",
"{+ c #000000",
"]+ c #000000",
"^+ c #000000",
"/+ c #000000",
"(+ c #000000",
"_+ c #000000",
":+ c #000000",
"<+ c #000000",
"[+ c #000000",
"}+ c #000000",
"|+ c #000000",
"1+ c #000000",
"2+ c #000000",
"3+ c #000000",
"4+ c #000000",
"5+ c #000000",
"6+ c #000000",
"7+ c #000000",
"8+ c #000000",
"9+ c #000000",
"0+ c #000000",
"a+ c #000000",
"b+ c #000000",
"c+ c #000000",
"d+ c #000000",
"e+ c #000000",
"f+ c #000000",
"g+ c #000000",
"h+ c #000000",
"i+ c #000000",
"j+ c #000000",
"k+ c #000000",
"l+ c #000000",
"m+ c #000000",
"n+ c #000000",
"o+ c #000000",
"p+ c #000000",
"q+ c #000000",
"r+ c #000000",
"s+ c #000000",
"t+ c #000000",
"u+ c #000000",
"v+ c #000000",
"w+ c #000000",
"x+ c #000000",
"y+ c #000000",
"z+ c #000000",
"A+ c #000000",
"B+ c #000000",
"C+ c #000000",
"D+ c #000000",
"E+ c #000000",
"F+ c #000000",
"G+ c #000000",
"A A A A A A A A A A A A A A A A A A A A A A A A A A A A A A A A ",
"A A A A A A A A A A A A A A A A A A A A A A A A A A A A A A A A ",
"A A A A A A A A A A A A A A A A A A A A A A A A A A A A A A A A ",
"A A A A A A A A A A A A A A A A A A A A A A A A A A A A A A A A ",
"A A A A A A A A A A A A A A A A A A A A A A A A A A A A A A A A ",
"A A A A A A A A A A A A A A A A A A A A A A A A A A A A A A A A ",
"a j j j j j j j j j j j j j j j j j j j j j j j j j j j j j j 9 ",
"b n n n n n n n n n n n n n n n n n n n n n n n n n n n n n n q ",
"d p p p p p p p p p p p p p p p p p p p p p p p p p p p p p p r ",
"d p p p p p p p p p p p p p p p p p p p p p p p p p p p p p p r ",
"d p p p p p p p p p p p p p p p p p p p p p p p p p p p p p p r ",
"d p p p p p p p p p p p p p p p p p p p p p p p p p p p p p p r ",
"  + + + + + + + + + + + + + + + + + + + + + + + + + + + + + + @ ",
"% & & & & & & & & & & & & & & & & & & & & & & & & & & & & & & = ",
") ^ ^ ^ ^ ^ ^ ^ ^ ^ ^ ^ ^ ^ ^ ^ ^ ^ ^ ^ ^ ^ ^ ^ ^ ^ ^ ^ ^ ^ / [ ",
") ^ ^ ^ ^ ^ ^ ^ ^ ^ ^ ^ ^ ^ ^ ^ ^ ^ ^ ^ ^ ^ ^ ^ ^ ^ ^ ^ ^ ^ / [ ",
") ^ ^ ^ ^ ^ ^ ^ ^ ^ ^ ^ ^ ^ ^ ^ ^ ^ ^ ^ ^ ^ ^ ^ ^ ^ ^ ^ ^ ^ / [ ",
") ^ ^ ^ ^ ^ ^ ^ ^ ^ ^ ^ ^ ^ ^ ^ ^ ^ ^ ^ ^ ^ ^ ^ ^ ^ ^ ^ ^ ^ / [ ",
"! / / / / / / / / / / / / / / / / / / / / / / / / / / / / / / < ",
"( [ [ [ [ [ [ [ [ [ [ [ [ [ [ [ [ [ [ [ [ [ [ [ [ [ [ [ [ [ < | "};
